<svg width="64" height="64" viewBox="0 0 64 64" fill="none" xmlns="http://www.w3.org/2000/svg">
<rect x="12" y="2" width="40" height="40" rx="8" fill="#0040A1"/>
<g filter="url(#filter0_dd_16_628)">
<rect x="12" y="2" width="40" height="40" rx="8" fill="white" fill-opacity="0.01" shape-rendering="crispEdges"/>
</g>
<path d="M26 31.5C25.7167 31.5 25.4792 31.4042 25.2875 31.2125C25.0958 31.0208 25 30.7833 25 30.5V28.45C24.7 28.1167 24.4583 27.7458 24.275 27.3375C24.0917 26.9292 24 26.4833 24 26V16.5C24 15.1167 24.6417 14.1042 25.925 13.4625C27.2083 12.8208 29.2333 12.5 32 12.5C34.8667 12.5 36.9167 12.8083 38.15 13.425C39.3833 14.0417 40 15.0667 40 16.5V26C40 26.4833 39.9083 26.9292 39.725 27.3375C39.5417 27.7458 39.3 28.1167 39 28.45V30.5C39 30.7833 38.9042 31.0208 38.7125 31.2125C38.5208 31.4042 38.2833 31.5 38 31.5H37C36.7167 31.5 36.4792 31.4042 36.2875 31.2125C36.0958 31.0208 36 30.7833 36 30.5V29.5H28V30.5C28 30.7833 27.9042 31.0208 27.7125 31.2125C27.5208 31.4042 27.2833 31.5 27 31.5H26ZM26 20.5H38V17.5H26V20.5ZM28.5 26.5C28.9167 26.5 29.2708 26.3542 29.5625 26.0625C29.8542 25.7708 30 25.4167 30 25C30 24.5833 29.8542 24.2292 29.5625 23.9375C29.2708 23.6458 28.9167 23.5 28.5 23.5C28.0833 23.5 27.7292 23.6458 27.4375 23.9375C27.1458 24.2292 27 24.5833 27 25C27 25.4167 27.1458 25.7708 27.4375 26.0625C27.7292 26.3542 28.0833 26.5 28.5 26.5ZM35.5 26.5C35.9167 26.5 36.2708 26.3542 36.5625 26.0625C36.8542 25.7708 37 25.4167 37 25C37 24.5833 36.8542 24.2292 36.5625 23.9375C36.2708 23.6458 35.9167 23.5 35.5 23.5C35.0833 23.5 34.7292 23.6458 34.4375 23.9375C34.1458 24.2292 34 24.5833 34 25C34 25.4167 34.1458 25.7708 34.4375 26.0625C34.7292 26.3542 35.0833 26.5 35.5 26.5Z" fill="white"/>
<defs>
<filter id="filter0_dd_16_628" x="0" y="0" width="64" height="64" filterUnits="userSpaceOnUse" color-interpolation-filters="sRGB">
<feFlood flood-opacity="0" result="BackgroundImageFix"/>
<feColorMatrix in="SourceAlpha" type="matrix" values="0 0 0 0 0 0 0 0 0 0 0 0 0 0 0 0 0 0 127 0" result="hardAlpha"/>
<feMorphology radius="4" operator="erode" in="SourceAlpha" result="effect1_dropShadow_16_628"/>
<feOffset dy="4"/>
<feGaussianBlur stdDeviation="3"/>
<feComposite in2="hardAlpha" operator="out"/>
<feColorMatrix type="matrix" values="0 0 0 0 0 0 0 0 0 0 0 0 0 0 0 0 0 0 0.1 0"/>
<feBlend mode="normal" in2="BackgroundImageFix" result="effect1_dropShadow_16_628"/>
<feColorMatrix in="SourceAlpha" type="matrix" values="0 0 0 0 0 0 0 0 0 0 0 0 0 0 0 0 0 0 127 0" result="hardAlpha"/>
<feMorphology radius="3" operator="erode" in="SourceAlpha" result="effect2_dropShadow_16_628"/>
<feOffset dy="10"/>
<feGaussianBlur stdDeviation="7.5"/>
<feComposite in2="hardAlpha" operator="out"/>
<feColorMatrix type="matrix" values="0 0 0 0 0 0 0 0 0 0 0 0 0 0 0 0 0 0 0.1 0"/>
<feBlend mode="normal" in2="effect1_dropShadow_16_628" result="effect2_dropShadow_16_628"/>
<feBlend mode="normal" in="SourceGraphic" in2="effect2_dropShadow_16_628" result="shape"/>
</filter>
</defs>
</svg>
